<svg xmlns="http://www.w3.org/2000/svg" width="960" height="338" viewBox="0 0 960 338" role="img"><defs><radialGradient id="glow" cx="83%" cy="40%" r="75%"><stop stop-color="#561b2b" stop-opacity=".65"/><stop offset="1" stop-color="#101219" stop-opacity="0"/></radialGradient></defs><style>text{font-family:Segoe UI,Arial,sans-serif}.mono{font-family:Consolas,monospace}.pulse{animation:pulse 3s ease-in-out infinite}@keyframes pulse{50%{opacity:.35}}@media(prefers-reduced-motion:reduce){*{animation:none!important}}</style><rect x=".5" y=".5" width="959" height="337" rx="16" fill="#101219" stroke="#2c303b"/>
<rect x="1" y="1" width="958" height="336" rx="16" fill="url(#glow)"/>
<path d="M0 274H960M0 298H960M0 322H960" stroke="#ffffff" stroke-opacity=".025"/>
<path d="M0 0V338" stroke="#ffffff" stroke-opacity=".025"/><path d="M44 0V338" stroke="#ffffff" stroke-opacity=".025"/><path d="M88 0V338" stroke="#ffffff" stroke-opacity=".025"/><path d="M132 0V338" stroke="#ffffff" stroke-opacity=".025"/><path d="M176 0V338" stroke="#ffffff" stroke-opacity=".025"/><path d="M220 0V338" stroke="#ffffff" stroke-opacity=".025"/><path d="M264 0V338" stroke="#ffffff" stroke-opacity=".025"/><path d="M308 0V338" stroke="#ffffff" stroke-opacity=".025"/><path d="M352 0V338" stroke="#ffffff" stroke-opacity=".025"/><path d="M396 0V338" stroke="#ffffff" stroke-opacity=".025"/><path d="M440 0V338" stroke="#ffffff" stroke-opacity=".025"/><path d="M484 0V338" stroke="#ffffff" stroke-opacity=".025"/><path d="M528 0V338" stroke="#ffffff" stroke-opacity=".025"/><path d="M572 0V338" stroke="#ffffff" stroke-opacity=".025"/><path d="M616 0V338" stroke="#ffffff" stroke-opacity=".025"/><path d="M660 0V338" stroke="#ffffff" stroke-opacity=".025"/><path d="M704 0V338" stroke="#ffffff" stroke-opacity=".025"/><path d="M748 0V338" stroke="#ffffff" stroke-opacity=".025"/><path d="M792 0V338" stroke="#ffffff" stroke-opacity=".025"/><path d="M836 0V338" stroke="#ffffff" stroke-opacity=".025"/><path d="M880 0V338" stroke="#ffffff" stroke-opacity=".025"/><path d="M924 0V338" stroke="#ffffff" stroke-opacity=".025"/><path d="M968 0V338" stroke="#ffffff" stroke-opacity=".025"/><path d="M1012 0V338" stroke="#ffffff" stroke-opacity=".025"/>
<rect x="32" y="30" width="6" height="6" fill="#e44458" class="pulse"/>
<text x="50" y="37" fill="#b6bac4" font-size="11" class="mono" letter-spacing="2">PERSONAL ARCHIVE  /  SIRIUS</text>
<text x="32" y="118" fill="#f4f2ef" font-size="70" font-weight="700" letter-spacing="-3">Sirius</text>
<text x="34" y="149" fill="#e45d6c" font-size="16" class="mono">@Sirius-yibai1002</text>
<text x="34" y="191" fill="#e3e3e6" font-size="22" >Build useful systems. Keep exploring.</text>
<text x="34" y="222" fill="#9a9fac" font-size="12" class="mono" letter-spacing="1">AI AGENTS   /   LOGISTICS TOOLS   /   ROBOTICS</text>
<path d="M34 254H581" stroke="#30323d"/>
<text x="34" y="284" fill="#dc5d6c" font-size="11" class="mono">01  BUILD</text><text x="185" y="284" fill="#b5b9c3" font-size="11" class="mono">02  EXPERIMENT</text><text x="380" y="284" fill="#b5b9c3" font-size="11" class="mono">03  SAVE PROGRESS</text>
<circle cx="776" cy="150" r="114" fill="none" stroke="#a73546" stroke-opacity=".25"/>
<circle cx="776" cy="150" r="99" fill="none" stroke="#a73546" stroke-opacity=".3" stroke-dasharray="2 8"/>
<path d="M641 150H660M892 150H911M776 15V34M776 266V285" stroke="#df455b"/>
<g transform="translate(776 150)"><path d="M0 0 L4.776122516674678e-15 -78 L55.15432893255071 -55.154328932550705 Z" fill="#dd3348" stroke="#101219" stroke-width="2"/><path d="M0 0 L55.15432893255071 -55.154328932550705 L78 0 Z" fill="#f1eeea" stroke="#101219" stroke-width="2"/><path d="M0 0 L78 0 L55.15432893255071 55.154328932550705 Z" fill="#dd3348" stroke="#101219" stroke-width="2"/><path d="M0 0 L55.15432893255071 55.154328932550705 L4.776122516674678e-15 78 Z" fill="#f1eeea" stroke="#101219" stroke-width="2"/><path d="M0 0 L4.776122516674678e-15 78 L-55.154328932550705 55.15432893255071 Z" fill="#dd3348" stroke="#101219" stroke-width="2"/><path d="M0 0 L-55.154328932550705 55.15432893255071 L-78 9.552245033349356e-15 Z" fill="#f1eeea" stroke="#101219" stroke-width="2"/><path d="M0 0 L-78 9.552245033349356e-15 L-55.15432893255072 -55.154328932550705 Z" fill="#dd3348" stroke="#101219" stroke-width="2"/><path d="M0 0 L-55.15432893255072 -55.154328932550705 L-1.432836755002403e-14 -78 Z" fill="#f1eeea" stroke="#101219" stroke-width="2"/></g>
<text x="776" y="296" fill="#bd6975" font-size="10" text-anchor="middle" class="mono" letter-spacing="1">RESIDENT EVIL  /  FAN THEME</text>
</svg>